<svg width="18" height="18" viewBox="0 0 18 18" fill="none" xmlns="http://www.w3.org/2000/svg">
<path d="M9 18C10.2311 18 11.3902 17.764 12.4775 17.292C13.5647 16.826 14.5197 16.1784 15.3423 15.3496C16.1706 14.5208 16.8207 13.5655 17.2924 12.4834C17.7641 11.3957 18 10.2331 18 8.99568C18 7.76403 17.7641 6.60719 17.2924 5.52518C16.8207 4.43741 16.1706 3.47914 15.3423 2.65037C14.5197 1.82158 13.5619 1.17409 12.4688 0.707917C11.3816 0.235971 10.2224 0 8.99137 0C7.76031 0 6.60115 0.235971 5.51391 0.707917C4.42665 1.17409 3.46884 1.82158 2.64047 2.65037C1.81783 3.47914 1.17066 4.43741 0.698946 5.52518C0.232982 6.60719 0 7.76403 0 8.99568C0 10.2331 0.232982 11.3957 0.698946 12.4834C1.17066 13.5655 1.82071 14.5208 2.64909 15.3496C3.47746 16.1784 4.43528 16.826 5.52253 17.292C6.60978 17.764 7.76894 18 9 18ZM8.04219 13.2777C7.86385 13.2777 7.70279 13.2402 7.55896 13.1654C7.41514 13.0849 7.27996 12.964 7.1534 12.8028L5.07383 10.2993C4.99329 10.1899 4.93001 10.0835 4.88399 9.97985C4.84372 9.8705 4.82358 9.75827 4.82358 9.64316C4.82358 9.40143 4.907 9.19712 5.07383 9.03022C5.24065 8.85755 5.44488 8.77122 5.68648 8.77122C5.8303 8.77122 5.95973 8.80288 6.07479 8.86618C6.18984 8.92374 6.30489 9.02446 6.41995 9.16835L8.0163 11.1713L11.4938 5.61151C11.7009 5.28345 11.9568 5.11942 12.2617 5.11942C12.4919 5.11942 12.6961 5.19425 12.8744 5.34389C13.0584 5.49352 13.1506 5.6892 13.1506 5.93093C13.1506 6.04028 13.1275 6.14964 13.0815 6.25899C13.0412 6.36834 12.9895 6.47194 12.9261 6.56979L8.89645 12.8028C8.79291 12.9525 8.66635 13.0705 8.51678 13.1569C8.37296 13.2374 8.21476 13.2777 8.04219 13.2777Z" fill="black"/>
</svg>
